<?xml version="1.0" encoding="UTF-8" standalone="no"?>
<svg
   width="160"
   height="160"
   viewBox="0 0 160 160"
   fill="none"
   version="1.1"
   id="svg1"
   xmlns="http://www.w3.org/2000/svg"
   xmlns:svg="http://www.w3.org/2000/svg">
  <defs
     id="defs1" />
  <path
     d="m 22.82842,17.17162 c -1.56208,-1.56216 -4.09472,-1.56216 -5.6568,0 -1.56216,1.56208 -1.56216,4.09472 0,5.6568 l 38.8284,38.82848 v 46.34152 c -3.34264,-2.5104 -7.4976,-3.9984 -12,-3.9984 -11.04568,0 -20,8.9544 -20,20 0,11.0456 8.95432,20 20,20 11.04568,0 20,-8.9544 20,-20 V 69.6569 l 27.3136,27.31352 c -2.0944,3.1616 -3.3136,6.9528 -3.3136,11.0296 0,11.0456 8.9544,20 20,20 4.076,0 7.868,-1.22 11.0296,-3.3136 l 18.1416,18.1424 c 1.56241,1.5616 4.09521,1.5616 5.6576,0 1.5616,-1.5624 1.5616,-4.0952 0,-5.6576 z m 85.1716,70.8284 c -0.9608,0 -1.9056,0.068 -2.8304,0.1984 l 22.632,22.632 c 0.1304,-0.9248 0.1984,-1.8696 0.1984,-2.8304 V 25.44098 c 0,-0.45048 -0.0368,-0.89064 -0.1064,-1.31736 -0.7672,-4.68464 -5.5584,-7.79424 -10.28,-6.3188 l -55.99976,17.5 c -2.25296,0.704 -4.02088,2.34064 -4.93296,4.40536 l 22.48992,22.48992 40.8292,-12.75912 v 42.55744 c -3.3424,-2.5104 -7.4976,-3.9984 -12,-3.9984 z"
     fill="#212121"
     id="path1"
     style="fill:#eee2d9;fill-opacity:1;stroke-width:8" />
</svg>
