<?xml version="1.0" encoding="UTF-8" standalone="no"?>
<svg
   width="160"
   height="160"
   viewBox="0 0 160 160"
   fill="none"
   version="1.1"
   id="svg1"
   xmlns="http://www.w3.org/2000/svg"
   xmlns:svg="http://www.w3.org/2000/svg">
  <defs
     id="defs1" />
  <path
     d="m 127.8936,24.128588 c -0.7672,-4.68464 -5.5584,-7.79424 -10.28,-6.31888 l -55.99976,17.5 C 58.274,36.353468 56,39.446507 56,42.945548 v 65.057762 c -3.34264,-2.5104 -7.4976,-3.9984 -12,-3.9984 -11.04568,0 -20,8.9544 -20,20 0,11.0456 8.95432,20 20,20 11.04568,0 20,-8.9544 20,-20 V 66.945948 l 56,-17.5 v 42.55736 c -3.3424,-2.5104 -7.4976,-3.9984 -12,-3.9984 -11.0456,0 -20,8.9544 -20,20.000002 0,11.0456 8.9544,20 20,20 11.0456,0 20,-8.9544 20,-20 V 25.445948 c 0,8e-5 0,-1.6e-4 0,0 0,-0.45056 -0.0368,-0.89072 -0.1064,-1.31736 z"
     fill="#212121"
     id="path1"
     style="fill:#eee2d9;fill-opacity:1;stroke-width:8" />
</svg>
