<?xml version="1.0" encoding="UTF-8" standalone="no"?>
<svg
   width="160"
   height="160"
   viewBox="0 0 160 160"
   fill="none"
   version="1.1"
   id="svg1"
   xmlns="http://www.w3.org/2000/svg"
   xmlns:svg="http://www.w3.org/2000/svg">
  <defs
     id="defs1" />
  <path
     d="m 95.96808,24.047815 c 0,-6.984159 -8.3224,-10.614799 -13.4416,-5.863999 L 51.5488,46.930856 c -0.73976,0.68656 -1.71168,1.068 -2.72088,1.068 H 27.968 c -6.62736,0 -12,5.372639 -12,11.999999 v 40.00032 c 0,6.627205 5.37264,12.000005 12,12.000005 h 20.85992 c 1.0092,0 1.98112,0.3808 2.72088,1.068 l 30.97768,28.74639 c 5.1192,4.7512 13.4416,1.1208 13.4416,-5.86399 z m 9.1712,37.12256 c 1.5624,-1.56208 4.0952,-1.56208 5.6568,0 l 13.172,13.1716 13.1712,-13.1716 c 1.5624,-1.56208 4.0952,-1.56208 5.6568,0 1.5624,1.56208 1.5624,4.0948 0,5.65688 l -13.1712,13.1716 13.1712,13.17152 c 1.5624,1.5624 1.5624,4.0944 0,5.6568 -1.5616,1.562405 -4.0944,1.562405 -5.6568,0 l -13.1712,-13.1712 -13.172,13.1712 c -1.5616,1.562405 -4.0944,1.562405 -5.6568,0 -1.5616,-1.5624 -1.5616,-4.0944 0,-5.6568 l 13.172,-13.17152 -13.172,-13.1716 c -1.5616,-1.56208 -1.5616,-4.0948 0,-5.65688 z"
     fill="#212121"
     id="path1"
     style="fill:#eee2d9;fill-opacity:1;stroke-width:8" />
</svg>
