<?xml version="1.0" encoding="UTF-8" standalone="no"?>
<svg
   width="160"
   height="160"
   viewBox="0 0 160 160"
   fill="none"
   version="1.1"
   id="svg1"
   sodipodi:docname="speaker_normal.svg"
   inkscape:export-filename="speaker_normal.svg"
   inkscape:export-xdpi="96"
   inkscape:export-ydpi="96"
   xmlns:inkscape="http://www.inkscape.org/namespaces/inkscape"
   xmlns:sodipodi="http://sodipodi.sourceforge.net/DTD/sodipodi-0.dtd"
   xmlns="http://www.w3.org/2000/svg"
   xmlns:svg="http://www.w3.org/2000/svg">
  <sodipodi:namedview
     id="namedview1"
     pagecolor="#ffffff"
     bordercolor="#000000"
     borderopacity="0.25"
     inkscape:showpageshadow="2"
     inkscape:pageopacity="0.0"
     inkscape:pagecheckerboard="0"
     inkscape:deskcolor="#d1d1d1">
    <inkscape:page
       x="0"
       y="0"
       width="160"
       height="160"
       id="page2"
       margin="0"
       bleed="0" />
  </sodipodi:namedview>
  <defs
     id="defs1" />
  <path
     d="M 96,24.047815 C 96,17.063656 87.6776,13.433016 82.5584,18.183816 l -30.9776,28.74704 c -0.73976,0.68656 -1.71168,1.068 -2.72088,1.068 H 28 c -6.62744,0 -12,5.372639 -12,11.999999 v 40.00032 c 0,6.627205 5.37256,12.000005 12,12.000005 h 20.85992 c 1.0092,0 1.98112,0.3808 2.72088,1.068 l 30.9776,28.74639 C 87.6776,146.56477 96,142.93437 96,135.94958 Z m 26.0296,12.972161 c 1.6456,-1.47416 4.1744,-1.33544 5.6488,0.30992 21.7296,24.252639 21.7296,61.085279 0,85.338084 -1.4736,1.6456 -4.0032,1.7848 -5.648,0.3104 -1.6456,-1.4744 -1.784,-4.0032 -0.3104,-5.6488 19.008,-21.214405 19.008,-53.446965 0,-74.661284 -1.4744,-1.64528 -1.3352,-4.17416 0.3096,-5.64832 z m -9.4016,66.444804 c -1.9136,-1.1024 -2.572,-3.548005 -1.4696,-5.462405 6.2096,-10.7808 6.6536,-24.47048 -0.005,-36.004 -1.1048,-1.91312 -0.4496,-4.35952 1.464,-5.46408 1.9128,-1.10456 4.3592,-0.44904 5.464,1.46408 8.144,14.10616 7.5856,30.844 0.01,43.996805 -1.1032,1.9144 -3.5488,2.572 -5.4632,1.4696 z"
     fill="#212121"
     id="path1"
     style="fill:#eee2d9;fill-opacity:1;stroke-width:8" />
</svg>
